# This file uses centimeters as units for non-parametric coordinates.

mtllib sign.mtl
g default
v -0.205116 0.384652 0.205116
v 0.205116 0.384652 0.205116
v -0.205116 3.016044 0.087103
v 0.205116 3.016044 0.205116
v -0.205116 3.016044 -0.087103
v 0.205116 3.016044 -0.205116
v -0.205116 0.384652 -0.205116
v 0.205116 0.384652 -0.205116
v -0.205116 3.362455 0.205116
v 0.117205 3.301615 0.205116
v 0.117205 3.301615 -0.205116
v -0.205116 3.362455 -0.205116
v -1.622008 3.016044 0.208531
v -1.622008 3.016044 -0.208531
v -2.027431 3.362455 0.109900
v -2.027431 3.362455 -0.109900
v -0.380088 0.008865 -0.380088
v 0.380088 0.008865 -0.380088
v 0.380088 0.008865 0.380088
v -0.380088 0.008865 0.380088
vt 0.375000 0.000000
vt 0.625000 0.000000
vt 0.375000 0.250000
vt 0.625000 0.250000
vt 0.375000 0.500000
vt 0.625000 0.500000
vt 0.375000 0.750000
vt 0.625000 0.750000
vt 0.375000 1.000000
vt 0.625000 1.000000
vt 0.875000 0.000000
vt 0.875000 0.250000
vt 0.125000 0.000000
vt 0.125000 0.250000
vt 0.375000 0.250000
vt 0.625000 0.250000
vt 0.625000 0.500000
vt 0.375000 0.500000
vt 0.375000 0.500000
vt 0.375000 0.250000
vt 0.375000 0.250000
vt 0.375000 0.500000
vt 0.375000 0.750000
vt 0.625000 0.750000
vt 0.625000 1.000000
vt 0.375000 1.000000
vn -0.113113 0.111196 0.987340
vn -0.113113 0.111196 0.987340
vn -0.142337 0.022190 0.989570
vn -0.142337 0.022190 0.989570
vn 0.185480 0.982648 0.000000
vn 0.185480 0.982648 0.000000
vn 0.185480 0.982648 0.000000
vn 0.185480 0.982648 0.000000
vn -0.142337 0.022190 -0.989570
vn -0.142337 0.022190 -0.989570
vn -0.113113 0.111196 -0.987340
vn -0.113113 0.111196 -0.987340
vn 0.000000 -1.000000 0.000000
vn 0.000000 -1.000000 0.000000
vn 0.000000 -1.000000 0.000000
vn 0.000000 -1.000000 0.000000
vn 0.995540 0.094339 0.000000
vn 0.995540 0.094339 0.000000
vn 1.000000 0.000000 0.000000
vn 1.000000 0.000000 0.000000
vn -0.992209 0.124586 0.000000
vn -0.992209 0.124586 0.000000
vn -1.000000 0.000000 0.000000
vn -1.000000 0.000000 0.000000
vn -0.172190 -0.203913 0.963727
vn -0.172190 -0.203913 0.963727
vn -0.172190 -0.203913 0.963727
vn -0.172190 -0.203913 0.963727
vn 0.955739 0.294216 0.000000
vn 0.955739 0.294216 0.000000
vn 0.955739 0.294216 0.000000
vn 0.955739 0.294216 0.000000
vn -0.172190 -0.203913 -0.963727
vn -0.172190 -0.203913 -0.963727
vn -0.172190 -0.203913 -0.963727
vn -0.172190 -0.203913 -0.963727
vn -0.649607 -0.760270 0.000000
vn -0.649607 -0.760270 0.000000
vn -0.649607 -0.760270 0.000000
vn -0.649607 -0.760270 0.000000
vn 0.000000 -1.000000 0.000000
vn 0.000000 -1.000000 0.000000
vn 0.000000 -1.000000 0.000000
vn 0.000000 -1.000000 0.000000
vn 0.008090 -0.023232 0.999697
vn 0.008090 -0.023232 0.999697
vn 0.008090 -0.023232 0.999697
vn 0.008090 -0.023232 0.999697
vn 0.000000 1.000000 0.000000
vn 0.000000 1.000000 0.000000
vn 0.000000 1.000000 0.000000
vn 0.000000 1.000000 0.000000
vn 0.008090 -0.023232 -0.999697
vn 0.008090 -0.023232 -0.999697
vn 0.008090 -0.023232 -0.999697
vn 0.008090 -0.023232 -0.999697
vn 0.000000 0.422103 -0.906548
vn 0.000000 0.422103 -0.906548
vn 0.906548 0.422104 0.000000
vn 0.906548 0.422104 0.000000
vn 0.000000 0.422103 0.906548
vn 0.000000 0.422103 0.906548
vn -0.906548 0.422104 0.000000
vn -0.906548 0.422104 0.000000
s 1
g pCube1
usemtl initialShadingGroup
f 1/1/1 2/2/2 4/4/3 3/3/4
s off
f 9/15/5 10/16/6 11/17/7 12/18/8
s 2
f 5/5/9 6/6/10 8/8/11 7/7/12
s off
f 17/23/13 18/24/14 19/25/15 20/26/16
s 3
f 2/2/17 8/11/18 6/12/19 4/4/20
s 4
f 7/13/21 1/1/22 3/3/23 5/14/24
s off
f 3/3/25 4/4/26 10/16/27 9/15/28
f 4/4/29 6/6/30 11/17/31 10/16/32
f 6/6/33 5/5/34 12/18/35 11/17/36
f 14/19/37 13/20/38 15/21/39 16/22/40
f 5/5/41 3/3/42 13/20/43 14/19/44
f 3/3/45 9/15/46 15/21/47 13/20/48
f 9/15/49 12/18/50 16/22/51 15/21/52
f 12/18/53 5/5/54 14/19/55 16/22/56
s 2
f 7/7/12 8/8/11 18/24/57 17/23/58
s 3
f 8/8/18 2/10/17 19/25/59 18/24/60
s 1
f 2/10/2 1/9/1 20/26/61 19/25/62
s 4
f 1/9/22 7/7/21 17/23/63 20/26/64
g default
v -1.583285 2.346588 0.096609
v -0.583285 2.346588 0.096609
v -1.583285 2.984943 0.028208
v -0.583285 2.984943 0.028208
v -1.583285 2.984943 -0.028208
v -0.583285 2.984943 -0.028208
v -1.583285 2.346588 -0.096609
v -0.583285 2.346588 -0.096609
vt 0.375000 0.000000
vt 0.625000 0.000000
vt 0.375000 0.250000
vt 0.625000 0.250000
vt 0.375000 0.500000
vt 0.625000 0.500000
vt 0.375000 0.750000
vt 0.625000 0.750000
vt 0.375000 1.000000
vt 0.625000 1.000000
vt 0.875000 0.000000
vt 0.875000 0.250000
vt 0.125000 0.000000
vt 0.125000 0.250000
vn 0.000000 0.106542 0.994308
vn 0.000000 0.106542 0.994308
vn 0.000000 0.106542 0.994308
vn 0.000000 0.106542 0.994308
vn 0.000000 1.000000 0.000000
vn 0.000000 1.000000 0.000000
vn 0.000000 1.000000 0.000000
vn 0.000000 1.000000 0.000000
vn 0.000000 0.106542 -0.994308
vn 0.000000 0.106542 -0.994308
vn 0.000000 0.106542 -0.994308
vn 0.000000 0.106542 -0.994308
vn 0.000000 -1.000000 0.000000
vn 0.000000 -1.000000 0.000000
vn 0.000000 -1.000000 0.000000
vn 0.000000 -1.000000 0.000000
vn 1.000000 0.000000 0.000000
vn 1.000000 0.000000 0.000000
vn 1.000000 0.000000 0.000000
vn 1.000000 0.000000 0.000000
vn -1.000000 0.000000 0.000000
vn -1.000000 0.000000 0.000000
vn -1.000000 0.000000 0.000000
vn -1.000000 0.000000 0.000000
s off
g pCube2
usemtl initialShadingGroup
f 21/27/65 22/28/66 24/30/67 23/29/68
f 23/29/69 24/30/70 26/32/71 25/31/72
f 25/31/73 26/32/74 28/34/75 27/33/76
f 27/33/77 28/34/78 22/36/79 21/35/80
f 22/28/81 28/37/82 26/38/83 24/30/84
f 27/39/85 21/27/86 23/29/87 25/40/88
